# xmcd CD database file
#
# Track frame offsets:
#	150
#	25497
#	53037
#	88492
#	114035
#	143992
#	172952
#
# Disc length: 2757 seconds
#
# Revision: 0
# Processed by: cddbd v1.5.2PL0 Copyright (c) Steve Scherf et al.
# Submitted via: CDex 1.51
#
DISCID=580ac307
DTITLE=KENNY DREW TRIO - BEST OF KENNY DREW TRIO LIVE
DYEAR=1994
DGENRE=Jazz
TTITLE0=Misty
TTITLE1=Satin Doll
TTITLE2=The Day Of Wine And Roses
TTITLE3=Sameday My Prince Will Come
TTITLE4=It Never Entered My Mind
TTITLE5=Oleo
TTITLE6=Caravan
EXTD=YEAR: 1994
EXTT0=
EXTT1=
EXTT2=
EXTT3=
EXTT4=
EXTT5=
EXTT6=
PLAYORDER=
